<mxfile host="app.diagrams.net" modified="2023-08-29T02:36:53.362Z" agent="Mozilla/5.0 (Windows NT 10.0; Win64; x64) AppleWebKit/537.36 (KHTML, like Gecko) Chrome/116.0.0.0 Safari/537.36" etag="QUu1I8Il-7IEIhG2XiYs" version="21.6.9" type="github">
  <diagram name="Page-1" id="XUQZVEk7m2H_hJ3OW1id">
    <mxGraphModel dx="1193" dy="763" grid="1" gridSize="10" guides="1" tooltips="1" connect="1" arrows="1" fold="1" page="1" pageScale="1" pageWidth="850" pageHeight="1100" math="0" shadow="0">
      <root>
        <mxCell id="0" />
        <mxCell id="1" parent="0" />
        <mxCell id="R0qfGBUCgMk41F5xZnNS-2" value="&lt;font style=&quot;font-size: 26px;&quot;&gt;Game Tebak Angka&lt;/font&gt;" style="rounded=0;whiteSpace=wrap;html=1;verticalAlign=top;" vertex="1" parent="1">
          <mxGeometry x="240" y="200" width="400" height="640" as="geometry" />
        </mxCell>
        <mxCell id="R0qfGBUCgMk41F5xZnNS-5" value="Pemain" style="shape=umlActor;verticalLabelPosition=bottom;verticalAlign=top;html=1;outlineConnect=0;" vertex="1" parent="1">
          <mxGeometry x="710" y="440" width="70" height="120" as="geometry" />
        </mxCell>
        <mxCell id="R0qfGBUCgMk41F5xZnNS-6" value="Random Angka" style="ellipse;whiteSpace=wrap;html=1;" vertex="1" parent="1">
          <mxGeometry x="330" y="330" width="220" height="90" as="geometry" />
        </mxCell>
        <mxCell id="R0qfGBUCgMk41F5xZnNS-7" value="Cek Angka" style="ellipse;whiteSpace=wrap;html=1;" vertex="1" parent="1">
          <mxGeometry x="330" y="510" width="220" height="90" as="geometry" />
        </mxCell>
        <mxCell id="R0qfGBUCgMk41F5xZnNS-8" value="Menebak Angka" style="ellipse;whiteSpace=wrap;html=1;" vertex="1" parent="1">
          <mxGeometry x="330" y="690" width="220" height="90" as="geometry" />
        </mxCell>
        <mxCell id="R0qfGBUCgMk41F5xZnNS-23" value="Kompuer" style="shape=umlActor;verticalLabelPosition=bottom;verticalAlign=top;html=1;outlineConnect=0;" vertex="1" parent="1">
          <mxGeometry x="80" y="440" width="70" height="120" as="geometry" />
        </mxCell>
        <mxCell id="R0qfGBUCgMk41F5xZnNS-25" value="" style="endArrow=none;html=1;rounded=0;" edge="1" parent="1" target="R0qfGBUCgMk41F5xZnNS-7">
          <mxGeometry width="50" height="50" relative="1" as="geometry">
            <mxPoint x="160" y="540" as="sourcePoint" />
            <mxPoint x="560" y="490" as="targetPoint" />
          </mxGeometry>
        </mxCell>
        <mxCell id="R0qfGBUCgMk41F5xZnNS-26" value="Text" style="edgeLabel;html=1;align=center;verticalAlign=middle;resizable=0;points=[];" vertex="1" connectable="0" parent="R0qfGBUCgMk41F5xZnNS-25">
          <mxGeometry x="-0.3674" y="-2" relative="1" as="geometry">
            <mxPoint as="offset" />
          </mxGeometry>
        </mxCell>
        <mxCell id="R0qfGBUCgMk41F5xZnNS-27" value="" style="endArrow=none;html=1;rounded=0;" edge="1" parent="1" source="R0qfGBUCgMk41F5xZnNS-23" target="R0qfGBUCgMk41F5xZnNS-6">
          <mxGeometry width="50" height="50" relative="1" as="geometry">
            <mxPoint x="510" y="640" as="sourcePoint" />
            <mxPoint x="560" y="590" as="targetPoint" />
            <Array as="points">
              <mxPoint x="270" y="420" />
            </Array>
          </mxGeometry>
        </mxCell>
        <mxCell id="R0qfGBUCgMk41F5xZnNS-28" value="" style="endArrow=none;html=1;rounded=0;" edge="1" parent="1" source="R0qfGBUCgMk41F5xZnNS-8" target="R0qfGBUCgMk41F5xZnNS-5">
          <mxGeometry width="50" height="50" relative="1" as="geometry">
            <mxPoint x="510" y="640" as="sourcePoint" />
            <mxPoint x="560" y="590" as="targetPoint" />
            <Array as="points">
              <mxPoint x="610" y="650" />
            </Array>
          </mxGeometry>
        </mxCell>
        <mxCell id="R0qfGBUCgMk41F5xZnNS-29" value="Text" style="edgeLabel;html=1;align=center;verticalAlign=middle;resizable=0;points=[];" vertex="1" connectable="0" parent="R0qfGBUCgMk41F5xZnNS-28">
          <mxGeometry x="-0.097" y="-4" relative="1" as="geometry">
            <mxPoint as="offset" />
          </mxGeometry>
        </mxCell>
      </root>
    </mxGraphModel>
  </diagram>
</mxfile>
